<svg width="60" height="61" viewBox="0 0 60 61" fill="none" xmlns="http://www.w3.org/2000/svg">
<path d="M0 30.625C0 14.0565 13.4315 0.625 30 0.625C46.5685 0.625 60 14.0565 60 30.625C60 47.1935 46.5685 60.625 30 60.625C13.4315 60.625 0 47.1935 0 30.625Z" fill="#F5F5F5"/>
<path d="M37.1477 23.875H23.3351L22.155 21.7596C22.0225 21.5222 21.7719 21.375 21.5 21.375H20C19.5858 21.375 19.25 21.7108 19.25 22.125C19.25 22.5392 19.5858 22.875 20 22.875H21.0596L22.2243 24.9627L24.9104 30.9059L24.9131 30.9119L25.1497 31.4354L22.4529 34.312C22.259 34.5189 22.1983 34.8174 22.296 35.0835C22.3937 35.3497 22.6332 35.538 22.9149 35.5702L25.373 35.8511C28.4477 36.2025 31.5524 36.2025 34.627 35.8511L37.0852 35.5702C37.4967 35.5231 37.7922 35.1514 37.7452 34.7398C37.6981 34.3283 37.3264 34.0328 36.9149 34.0799L34.4567 34.3608C31.4952 34.6992 28.5048 34.6992 25.5433 34.3608L24.5678 34.2493L26.5472 32.138C26.5663 32.1175 26.5841 32.0963 26.6005 32.0744L27.3533 32.1724C28.4083 32.3097 29.4746 32.3366 30.5351 32.2527C33.0086 32.0571 35.301 30.8801 36.9015 28.9841L37.4795 28.2993C37.499 28.2763 37.517 28.2521 37.5335 28.2269L38.6109 26.5851C39.3745 25.4213 38.5397 23.875 37.1477 23.875Z" fill="#666666"/>
<path d="M24.5 37.125C23.6716 37.125 23 37.7966 23 38.625C23 39.4534 23.6716 40.125 24.5 40.125C25.3284 40.125 26 39.4534 26 38.625C26 37.7966 25.3284 37.125 24.5 37.125Z" fill="#666666"/>
<path d="M34 38.625C34 37.7966 34.6716 37.125 35.5 37.125C36.3284 37.125 37 37.7966 37 38.625C37 39.4534 36.3284 40.125 35.5 40.125C34.6716 40.125 34 39.4534 34 38.625Z" fill="#666666"/>
<path d="M38 49.625C38 43.5499 42.9249 38.625 49 38.625C55.0751 38.625 60 43.5499 60 49.625C60 55.7001 55.0751 60.625 49 60.625C42.9249 60.625 38 55.7001 38 49.625Z" fill="#8BD32E"/>
<path d="M50.208 45.225V53.625H48.264V46.785H46.584V45.225H50.208Z" fill="white"/>
</svg>
