<svg width="264" height="104" viewBox="0 0 264 104" fill="none" xmlns="http://www.w3.org/2000/svg">
<path d="M261.588 16.7353C263.644 21.6365 262.151 27.3427 257.449 33.5232C252.756 39.6913 244.934 46.2388 234.566 52.7722C213.835 65.8357 183.025 78.7833 147.048 88.5039C111.072 98.2245 76.778 102.868 50.4241 102.526C37.2437 102.355 26.0799 100.938 17.6948 98.3031C9.29285 95.6632 3.80368 91.8435 1.7477 86.9424C-0.308285 82.0413 1.18485 76.335 5.88671 70.1545C10.5792 63.9864 18.4018 57.439 28.7698 50.9055C49.5003 37.842 80.3106 24.8944 116.287 15.1738C152.264 5.45317 186.558 0.810056 212.911 1.15167C226.092 1.32251 237.256 2.73999 245.641 5.37462C254.043 8.01452 259.532 11.8342 261.588 16.7353Z" stroke="#8BD32E"/>
</svg>
