<svg width="253" height="128" viewBox="0 0 253 128" fill="none" xmlns="http://www.w3.org/2000/svg">
<path d="M250.234 10.5196C252.915 14.9849 252.207 20.7601 248.391 27.4756C244.583 34.1761 237.736 41.7069 228.374 49.5986C209.655 65.3777 180.969 82.5269 146.751 97.2919C112.534 112.057 79.2977 121.627 53.2338 125.172C40.1983 126.945 28.987 127.207 20.3563 125.874C11.7063 124.537 5.78261 121.623 3.10192 117.158C0.42123 112.693 1.12843 106.918 4.94468 100.202C8.75239 93.5016 15.5997 85.9708 24.9619 78.0791C43.6812 62.2999 72.367 45.1508 106.585 30.3858C140.802 15.6207 174.038 6.05045 200.102 2.50543C213.137 0.732437 224.349 0.470874 232.979 1.80413C241.629 3.14038 247.553 6.05434 250.234 10.5196Z" stroke="#8BD32E"/>
</svg>
