<svg width="210" height="57" viewBox="0 0 210 57" fill="none" xmlns="http://www.w3.org/2000/svg">
<g clip-path="url(#clip0_2521_1280)">
<path d="M65.9639 -0.00134277C65.9639 -0.00134277 60.0754 8.15992 68.9825 13.9032C68.9825 13.9045 74.0171 4.93251 65.9639 -0.00134277Z" fill="#8BD32E"/>
<path d="M55.3337 8.16463C55.3337 8.16463 49.9756 25.6695 68.6297 30.2715C68.6324 30.2715 72.0482 11.8777 55.3337 8.16463Z" fill="#8BD32E"/>
<path d="M146.714 55.7111C136.058 55.7111 127.597 47.6038 127.597 36.9193V18.1288H131.616V35.3099C131.616 43.6857 137.667 51.6858 146.77 51.6858H156.569V55.7111H146.714Z" fill="#666666"/>
<path d="M166.095 23.4977C166.095 25.109 164.756 26.4513 163.148 26.4513C161.541 26.4513 160.201 25.109 160.201 23.4977C160.201 21.8864 161.541 20.5448 163.148 20.5448C164.756 20.5448 166.095 21.887 166.095 23.4977ZM165.131 31.5517V55.7111H161.112V31.5517H165.131Z" fill="#666666"/>
<path d="M175.357 31.5517V30.2088C175.357 23.6589 181.728 17.5919 186.709 17.5919V21.7258C182.585 22.2654 179.373 25.9144 179.373 30.2088V31.5517H183.389V35.5784H179.373V55.7111H175.355V35.5784H171.336V31.5517H175.357Z" fill="#666666"/>
<path d="M210.001 37.5675L193.239 49.2718C194.738 51.0976 197.041 52.2254 199.612 52.2254C201.861 52.2254 203.949 51.3128 205.502 49.8647L208.554 52.5498C206.251 54.8039 203.092 56.2541 199.612 56.2541C192.651 56.2541 187.029 50.616 187.029 43.6371C187.029 36.6582 192.651 31.0189 199.612 31.0189C204.431 31.0142 208.072 33.8065 210.001 37.5675ZM204.217 37.2457C203.575 35.9568 201.968 35.0442 199.612 35.0442C194.9 35.0442 191.044 38.9097 191.044 43.6351C191.052 44.4939 191.196 45.346 191.473 46.1584L204.217 37.2457Z" fill="#666666"/>
<path d="M19.1933 56.2507C8.58365 56.2507 0 47.8749 0 37.1904C0 26.5059 8.58365 18.1288 19.1933 18.1288H30.3361L30.2832 24.4109H19.1933C11.9961 24.4109 6.23815 29.9943 6.23815 37.1351C6.23815 44.2226 11.9981 49.9139 19.0868 49.9139H19.1933C26.6578 49.8599 31.2959 45.2424 32.042 39.9808H18.3936V33.8578H38.4402V38.849C38.4402 49.2691 28.7367 56.2507 19.1933 56.2507Z" fill="#8BD32E"/>
<path d="M84.3354 31.0169C82.339 31.0123 80.3705 31.4899 78.5952 32.4096C76.8199 33.3293 75.2895 34.6644 74.1323 36.3028C73.498 35.5324 72.7122 34.9025 71.8245 34.4526C70.9368 34.0028 69.9662 33.7427 68.9739 33.6888C67.9815 33.6349 66.9888 33.7883 66.0582 34.1394C65.1276 34.4904 64.2791 35.0316 63.5662 35.7288C61.5678 33.2142 58.6925 31.5616 55.5263 31.1079C52.36 30.6541 49.1411 31.4334 46.5255 33.2868C43.91 35.1403 42.0947 37.9284 41.4497 41.0829C40.8046 44.2374 41.3783 47.521 43.0539 50.2643C44.7295 53.0076 47.3808 55.0042 50.4675 55.8472C53.5541 56.6902 56.8439 56.3161 59.6662 54.8012C62.4885 53.2863 64.6309 50.7446 65.6568 47.694C66.6828 44.6435 66.515 41.3138 65.1876 38.3836C65.6386 37.7719 66.244 37.2931 66.9409 36.9968C67.6378 36.7005 68.4007 36.5976 69.1505 36.6988C69.9003 36.8 70.6094 37.1016 71.2042 37.5723C71.7991 38.0429 72.2578 38.6654 72.5329 39.3751C72.0522 40.7425 71.8069 42.1825 71.8076 43.6331C71.8076 46.1277 72.5421 48.5662 73.9183 50.6404C75.2945 52.7146 77.2506 54.3312 79.5391 55.2859C81.8277 56.2405 84.346 56.4903 86.7755 56.0036C89.205 55.5169 91.4367 54.3157 93.1882 52.5517C94.9398 50.7878 96.1327 48.5404 96.6159 46.0937C97.0992 43.6471 96.8512 41.1111 95.9032 38.8064C94.9553 36.5017 93.35 34.5318 91.2903 33.1459C89.2307 31.7599 86.8092 31.0202 84.3321 31.0202L84.3354 31.0169ZM53.7944 50.1796C50.2178 50.1796 47.2856 47.2274 47.2856 43.6331C47.2856 40.0388 50.2178 37.0791 53.7944 37.0791C57.3709 37.0791 60.295 40.0313 60.295 43.6331C60.295 47.2348 57.3615 50.1803 53.793 50.1803L53.7944 50.1796ZM84.3354 50.1796C80.7663 50.1796 77.8341 47.2274 77.8341 43.6331C77.8341 40.0388 80.7663 37.0791 84.3354 37.0791C87.9046 37.0791 90.8435 40.0313 90.8435 43.6331C90.8435 47.2348 87.9113 50.1803 84.3354 50.1803V50.1796Z" fill="#8BD32E"/>
<path d="M119.981 53.6202C117.795 55.2309 115.077 56.2507 112.251 56.2507C105.32 56.2507 99.7212 50.8278 99.7212 43.6338C99.7212 36.4397 105.32 31.0155 112.251 31.0155C114.595 31.0155 116.836 31.7136 118.756 32.8953V18.1288H124.78V56.2507L119.981 53.6202ZM112.197 37.0832C108.626 37.0832 105.693 40.0367 105.693 43.6344C105.693 47.2321 108.626 50.1844 112.197 50.1844C115.769 50.1844 118.702 47.2315 118.702 43.6344C118.702 40.0374 115.769 37.0811 112.197 37.0811V37.0832Z" fill="#8BD32E"/>
<path d="M87.1339 43.6324C87.1337 44.1895 86.9696 44.734 86.6622 45.1971C86.3548 45.6602 85.9179 46.0211 85.4068 46.2342C84.8957 46.4473 84.3334 46.503 83.7909 46.3942C83.2484 46.2854 82.7501 46.0171 82.359 45.6232C81.9679 45.2292 81.7016 44.7274 81.5937 44.181C81.4859 43.6346 81.5413 43.0683 81.753 42.5537C81.9647 42.0391 82.3232 41.5992 82.7831 41.2898C83.2431 40.9803 83.7838 40.8151 84.337 40.8151C84.7043 40.8151 85.0681 40.888 85.4074 41.0296C85.7468 41.1712 86.0552 41.3787 86.3149 41.6403C86.5746 41.9019 86.7806 42.2125 86.9212 42.5543C87.0617 42.8961 87.134 43.2625 87.1339 43.6324Z" fill="#8BD32E"/>
<path d="M56.5874 43.6324C56.5874 44.1896 56.4233 44.7343 56.1159 45.1976C55.8085 45.661 55.3716 46.0221 54.8604 46.2353C54.3492 46.4485 53.7867 46.5043 53.244 46.3956C52.7013 46.2869 52.2028 46.0186 51.8116 45.6246C51.4203 45.2306 51.1539 44.7286 51.0459 44.1821C50.938 43.6355 50.9934 43.0691 51.2051 42.5543C51.4169 42.0395 51.7755 41.5995 52.2355 41.2899C52.6956 40.9803 53.2365 40.8151 53.7898 40.8151C54.5317 40.8151 55.2433 41.1119 55.768 41.6403C56.2926 42.1686 56.5874 42.8852 56.5874 43.6324Z" fill="#8BD32E"/>
</g>
<defs>
<clipPath id="clip0_2521_1280">
<rect width="210" height="56.25" fill="white"/>
</clipPath>
</defs>
</svg>
